<?xml version="1.0" encoding="utf-8"?>
<!-- Generator: Adobe Illustrator 14.0.0, SVG Export Plug-In . SVG Version: 6.00 Build 43363)  -->
<!DOCTYPE svg PUBLIC "-//W3C//DTD SVG 1.1//EN" "http://www.w3.org/Graphics/SVG/1.1/DTD/svg11.dtd">
<svg version="1.1" id="Layer_1" xmlns="http://www.w3.org/2000/svg" xmlns:xlink="http://www.w3.org/1999/xlink" x="0px" y="0px"
	 width="612px" height="792px" viewBox="0 0 612 792" enable-background="new 0 0 612 792" xml:space="preserve">
<g>
	<polygon fill-rule="evenodd" clip-rule="evenodd" fill="#FFFFFF" points="209,300 401.756,300 401.756,492.756 209,492.756 
		209,300 	"/>
	<path fill-rule="evenodd" clip-rule="evenodd" d="M214.669,381.215v12.651c0,0,32.702,0,37.003,0s9.796-3.977,9.796-10.556
		c0-2.647,1.012-4.373-2.098-7.872l-4.734-5.609c-2.712-2.53,0.324-2.53,2.602-2.53c1.265,0,15.624,0,15.624,0v26.567h12.39v-26.567
		h16.698v-11.377h-54.073c-6.579,0-9.796,6.317-9.615,9.607c0.182,3.289,0.786,7.427,6.254,12.397
		c4.986,4.533-2.469,3.289-3.218,3.289C237.503,381.215,214.669,381.215,214.669,381.215L214.669,381.215z"/>
	<path fill-rule="evenodd" clip-rule="evenodd" d="M329.347,355.921h-19.987l-11.204,37.944h12.469l2.024-5.313h13.156l1.953,5.313
		h12.216L329.347,355.921L329.347,355.921z M315.432,379.444l4.301-13.916l4.049,13.916H315.432L315.432,379.444z"/>
	<path fill-rule="evenodd" clip-rule="evenodd" d="M379.443,381.215c-4.808,0-4.808-1.771-4.808-1.771
		c4.12,0,7.772-6.001,7.772-12.145c0-6.143-6.001-11.377-10.809-11.377c-4.807,0-26.89,0-26.89,0v37.944h13.662v-12.651
		c0,0,5.819,6.831,8.855,9.615c3.036,2.783,3.289,3.036,7.408,3.036c4.12,0,21.451,0,21.451,0v-12.651
		C396.087,381.215,384.25,381.215,379.443,381.215L379.443,381.215z M367.046,372.359c-3.472,0-8.674,0-8.674,0v-6.831
		c0,0,5.891,0,8.674,0C371.021,365.528,371.708,372.359,367.046,372.359L367.046,372.359z"/>
	<polygon fill-rule="evenodd" clip-rule="evenodd" points="214.669,398.672 228.648,398.672 232.19,411.322 235.479,398.672 
		250.154,398.672 253.949,411.322 257.745,398.672 269.889,398.672 258.757,436.625 247.624,436.625 242.746,418.66 237.25,436.625 
		225.865,436.625 214.669,398.672 	"/>
	<path fill-rule="evenodd" clip-rule="evenodd" d="M298.578,398.891H278.59l-11.204,37.943h12.469l2.024-5.313h13.156l1.953,5.313
		h12.216L298.578,398.891L298.578,398.891z M284.663,422.412l4.301-13.916l4.048,13.916H284.663L284.663,422.412z"/>
	<path fill-rule="evenodd" clip-rule="evenodd" d="M379.696,410.059c-2.277,0-4.756,0.264-2.044,2.795l4.733,5.607
		c3.11,3.5,3.059,4.961,3.059,7.607c0,6.578-6.507,10.557-10.809,10.557l-29.895,0.201c-4.119,0-4.373-0.254-7.409-3.037
		c-3.035-2.783-8.854-9.613-8.854-9.613v12.65h-13.663v-37.943c0,0,22.083,0,26.891,0c4.807,0,10.809,5.232,10.809,11.377
		c0,6.143-3.653,12.145-7.772,12.145c0,0,1.811,1.822,4.847,1.822s14.727,0.012,14.727,0.012c0.748,0,8.204,1.244,3.218-3.289
		c-5.468-4.971-6.072-9.107-6.255-12.396c-0.182-3.289,2.661-9.881,9.239-9.881h25.57v11.387H379.696L379.696,410.059z
		 M337.15,415.32c-3.471,0-8.673,0-8.673,0v-6.832c0,0,5.89,0,8.673,0C341.126,408.488,341.813,415.32,337.15,415.32L337.15,415.32z
		"/>
</g>
</svg>
